<svg width="250" height="65" viewBox="0 0 250 65" fill="none" xmlns="http://www.w3.org/2000/svg">
<g clip-path="url(#clip0_455_12)">
<path d="M32.4445 64.159C15.0218 64.159 0.847656 49.9942 0.847656 32.5832C0.847656 15.1721 15.0218 1.00732 32.4445 1.00732H217.401C234.824 1.00732 248.998 15.1721 248.998 32.5832C248.998 49.9942 234.824 64.159 217.401 64.159H32.4445Z" fill="#2758D6"/>
<path d="M217.401 1.7771C234.426 1.7771 248.228 15.5691 248.228 32.5828C248.228 49.5962 234.426 63.3885 217.401 63.3885H32.4446C15.4199 63.3885 1.61846 49.5965 1.61846 32.5828C1.61846 15.5694 15.4196 1.7771 32.4446 1.7771H217.401ZM217.401 0.236816H32.4446C14.5972 0.236816 0.0771484 14.7472 0.0771484 32.5828C0.0771484 50.4184 14.5972 64.9287 32.4446 64.9287H217.401C235.249 64.9287 249.769 50.4184 249.769 32.5828C249.769 14.7472 235.249 0.236816 217.401 0.236816Z" fill="#F5F5F5"/>
<path d="M43.081 31.3116C46.4102 29.864 48.0748 27.4609 48.0748 24.1031C48.0748 21.947 47.3812 20.1753 45.9941 18.7891C44.052 16.8483 41.1078 15.8779 37.1624 15.8779H20.5625V48.2239H37.2549C41.1078 48.2239 44.1134 47.4313 46.2715 45.8442C48.4287 44.258 49.5083 42.0779 49.5083 39.3053C49.5083 37.1801 48.9605 35.4861 47.8668 34.2224C46.7724 32.96 45.1772 31.9896 43.081 31.3116ZM29.3017 23.0865H35.1279C37.8402 23.0865 39.1969 24.0106 39.1969 25.859C39.1969 27.7997 37.7786 28.7701 34.9429 28.7701H29.3017V23.0865ZM36.2376 41.0157H29.3017V35.0545H36.1451C39.0733 35.0545 40.5378 36.0248 40.5378 37.9656C40.5378 39.9988 39.1044 41.0157 36.2376 41.0157Z" fill="#F5F5F5"/>
<path d="M62.594 22.6704C58.9254 22.6704 55.9044 23.9261 53.5311 26.4364C51.1569 28.9477 49.9707 32.0507 49.9707 35.7474C49.9707 39.6601 51.2192 42.8173 53.7161 45.2202C56.213 47.623 59.4337 48.8244 63.3801 48.8244C67.9417 48.8244 71.5644 47.1307 74.2463 43.7415L69.3912 39.7214C67.6643 41.416 65.8147 42.2628 63.8425 42.2628C60.9445 42.2628 59.1412 40.8926 58.4325 38.15H75.1711C75.2013 37.7501 75.2173 37.1494 75.2173 36.3478C75.2173 32.405 74.1381 29.1393 71.9806 26.5516C69.8224 23.9642 66.6936 22.6704 62.594 22.6704ZM58.2938 33.668C58.5401 32.2818 59.0407 31.1808 59.7965 30.3641C60.5515 29.5484 61.4994 29.1396 62.6402 29.1396C63.8425 29.1396 64.8286 29.5484 65.5996 30.3641C66.3699 31.1808 66.8323 32.2818 66.9867 33.668H58.2938Z" fill="#F5F5F5"/>
<path d="M85.806 14.4917H77.0205V48.2239H85.806V14.4917Z" fill="#F5F5F5"/>
<path d="M97.5501 14.4917H88.7646V48.2239H97.5501V14.4917Z" fill="#F5F5F5"/>
<path d="M111.329 22.8555C107.722 22.8555 104.346 23.5024 101.202 24.7962L103.006 30.9882C105.348 30.064 107.645 29.6019 109.895 29.6019C113.225 29.6019 114.889 30.958 114.889 33.6683V34.0845C113.07 33.4372 111.066 33.1141 108.878 33.1141C105.856 33.1141 103.468 33.7921 101.711 35.1472C99.9537 36.5033 99.0752 38.4441 99.0752 40.9695C99.0752 43.4346 99.8613 45.3522 101.433 46.7225C103.006 48.0936 105.024 48.7788 107.491 48.7788C110.512 48.7788 112.962 47.732 114.843 45.6369V48.2243H123.536V33.8537C123.536 30.3114 122.642 27.6615 120.854 25.9055C118.82 23.8721 115.644 22.8555 111.329 22.8555ZM114.981 39.1674C114.981 40.3996 114.58 41.3934 113.779 42.1478C112.977 42.9029 111.93 43.28 110.635 43.28C109.711 43.28 108.963 43.0338 108.393 42.5406C107.822 42.0483 107.537 41.3854 107.537 40.554C107.537 39.5685 107.891 38.7906 108.601 38.2204C109.31 37.6505 110.296 37.3656 111.56 37.3656C112.824 37.3656 113.965 37.5815 114.982 38.0128V39.1674H114.981Z" fill="#F5F5F5"/>
<path d="M156.966 39.6985C155.857 40.3612 154.516 40.692 152.944 40.692C150.693 40.692 148.843 39.8683 147.395 38.2202C145.946 36.5724 145.222 34.5164 145.222 32.0514C145.222 29.6183 145.946 27.5691 147.395 25.9056C148.843 24.2421 150.693 23.4104 152.944 23.4104C155.687 23.4104 158.06 24.658 160.064 27.1532L166.631 22.0703C163.332 17.5117 158.8 15.2314 153.036 15.2314C148.165 15.2314 144.104 16.8487 140.852 20.0833C137.6 23.3179 135.974 27.3079 135.974 32.0514C135.974 36.8882 137.584 40.9006 140.806 44.0887C144.027 47.2771 147.98 48.8713 152.666 48.8713C156.026 48.8713 158.832 48.2314 161.082 46.9533C163.332 45.6755 165.305 43.8804 167.001 41.57L160.25 36.764C159.17 38.0581 158.076 39.0365 156.966 39.6985Z" fill="#F5F5F5"/>
<path d="M177.173 23.2251H168.387V48.2239H177.173V23.2251Z" fill="#F5F5F5"/>
<path d="M177.358 14.4917H168.203V20.9609H177.358V14.4917Z" fill="#F5F5F5"/>
<path d="M190.951 22.8555C187.345 22.8555 183.969 23.5024 180.825 24.7962L182.628 30.9882C184.971 30.064 187.267 29.6019 189.518 29.6019C192.847 29.6019 194.512 30.958 194.512 33.6683V34.0845C192.693 33.4372 190.689 33.1141 188.501 33.1141C185.479 33.1141 183.09 33.7921 181.334 35.1472C179.577 36.5033 178.698 38.4441 178.698 40.9695C178.698 43.4346 179.484 45.3522 181.056 46.7225C182.628 48.0936 184.647 48.7788 187.113 48.7788C190.134 48.7788 192.585 47.732 194.465 45.6369V48.2243H203.158V33.8537C203.158 30.3114 202.264 27.6615 200.476 25.9055C198.442 23.8721 195.267 22.8555 190.951 22.8555ZM194.604 39.1674C194.604 40.3996 194.203 41.3934 193.402 42.1478C192.6 42.9029 191.553 43.28 190.258 43.28C189.333 43.28 188.585 43.0338 188.016 42.5406C187.445 42.0483 187.16 41.3854 187.16 40.554C187.16 39.5685 187.514 38.7906 188.224 38.2204C188.932 37.6505 189.918 37.3656 191.183 37.3656C192.447 37.3656 193.588 37.5815 194.605 38.0128V39.1674H194.604Z" fill="#F5F5F5"/>
<path d="M228.22 26.4826C225.6 23.9411 222.317 22.6704 218.371 22.6704C214.395 22.6704 211.089 23.9492 208.453 26.5057C205.817 29.0632 204.5 32.1432 204.5 35.7474C204.5 39.3828 205.81 42.4708 208.43 45.0122C211.05 47.5537 214.332 48.8244 218.279 48.8244C222.255 48.8244 225.561 47.5466 228.197 44.9891C230.833 42.4326 232.151 39.3517 232.151 35.7474C232.151 32.113 230.84 29.0241 228.22 26.4826ZM222.163 39.7676C221.207 40.8464 219.943 41.3849 218.371 41.3849C216.86 41.3849 215.597 40.8304 214.579 39.7217C213.562 38.6123 213.053 37.2886 213.053 35.7477C213.053 34.1465 213.531 32.8064 214.487 31.7276C215.442 30.6494 216.706 30.1103 218.278 30.1103C219.788 30.1103 221.053 30.6648 222.07 31.7738C223.088 32.8828 223.596 34.2078 223.596 35.7477C223.596 37.3496 223.118 38.6897 222.163 39.7676Z" fill="#F5F5F5"/>
</g>
<defs>
<clipPath id="clip0_455_12">
<rect width="250" height="65" fill="white"/>
</clipPath>
</defs>
</svg>
